<?xml version="1.0" encoding="utf-8"?>
<!-- Generator: Adobe Illustrator 19.0.0, SVG Export Plug-In . SVG Version: 6.00 Build 0)  -->
<svg version="1.2" baseProfile="tiny" id="Слой_1"
	 xmlns="http://www.w3.org/2000/svg" xmlns:xlink="http://www.w3.org/1999/xlink" x="0px" y="0px" viewBox="0 0 30 30"
	 xml:space="preserve">
<g id="XMLID_3_">
	<path id="XMLID_1_" fill="#FFFFFF" d="M19.7,5.6l-2.4,0c-2.7,0-4.5,1.8-4.5,4.6v2.1h-2.4c-0.2,0-0.4,0.2-0.4,0.4v3.1
		c0,0.2,0.2,0.4,0.4,0.4h2.4V24c0,0.2,0.2,0.4,0.4,0.4h3.2c0.2,0,0.4-0.2,0.4-0.4v-7.8h2.9c0.2,0,0.4-0.2,0.4-0.4l0-3.1
		c0-0.1,0-0.2-0.1-0.3s-0.2-0.1-0.3-0.1h-2.9v-1.8c0-0.9,0.2-1.3,1.3-1.3l1.6,0c0.2,0,0.4-0.2,0.4-0.4V6C20.1,5.8,19.9,5.6,19.7,5.6
		z"/>
</g>
</svg>
