<?xml version="1.0" encoding="utf-8"?>
<!-- Generator: Adobe Illustrator 19.0.0, SVG Export Plug-In . SVG Version: 6.00 Build 0)  -->
<svg version="1.2" baseProfile="tiny" id="Слой_1"
	 xmlns="http://www.w3.org/2000/svg" xmlns:xlink="http://www.w3.org/1999/xlink" x="0px" y="0px" viewBox="0 0 30 30"
	 xml:space="preserve">
<path id="XMLID_5_" fill="#FFFFFF" d="M19.4,7h-8.8C9.2,7,8,8.2,8,9.6v8.8c0,1.5,1.2,2.6,2.6,2.6h8.8c1.5,0,2.6-1.2,2.6-2.6V9.6
	C22,8.2,20.8,7,19.4,7z M20.9,11.9h-3.5c0.5,0.6,0.8,1.3,0.8,2.2c0,1.8-1.5,3.2-3.2,3.2c-1.8,0-3.2-1.5-3.2-3.2
	c0-0.8,0.3-1.6,0.8-2.2H9.1V9.6c0-0.9,0.7-1.6,1.6-1.6h8.8c0.9,0,1.6,0.7,1.6,1.6V11.9z"/>
</svg>
