<?xml version="1.0" encoding="utf-8"?>
<!-- Generator: Adobe Illustrator 19.0.0, SVG Export Plug-In . SVG Version: 6.00 Build 0)  -->
<svg version="1.2" baseProfile="tiny" id="Слой_1"
	 xmlns="http://www.w3.org/2000/svg" xmlns:xlink="http://www.w3.org/1999/xlink" x="0px" y="0px" viewBox="0 0 30 30"
	 xml:space="preserve">
<g id="XMLID_4_">
	<path id="Twitter__x28_alt_x29_" fill="#FFFFFF" d="M21.1,13.7c1-0.1,1.6-0.5,1.9-1.1c-0.4,0.2-1.4,0.5-2,0.2
		c0-0.1-0.1-0.3-0.1-0.4c-0.5-1.7-2-3-3.7-2.9c0.1-0.1,0.3-0.1,0.4-0.1c0.2-0.1,1.2-0.2,1.1-0.6C18.6,8.4,17.3,9,17,9.1
		c0.3-0.1,0.9-0.3,0.9-0.7c-0.5,0.1-1,0.3-1.4,0.6c0.1-0.1,0.2-0.3,0.3-0.5c-1.3,0.8-2.1,2.5-2.7,4.2c-0.5-0.5-0.9-0.8-1.3-1.1
		c-1.1-0.6-2.4-1.2-4.5-2c-0.1,0.7,0.3,1.6,1.5,2.2c-0.2,0-0.7,0-1.1,0.1c0.1,0.8,0.6,1.4,1.9,1.7c-0.6,0-0.9,0.2-1.2,0.5
		c0.3,0.5,0.9,1.2,2.1,1c-1.3,0.6-0.5,1.6,0.5,1.5c-1.8,1.9-4.8,1.8-6.4,0.2c4.4,6,13.9,3.5,15.3-2.2c1.1,0,1.7-0.4,2.1-0.8
		C22.5,14,21.6,13.9,21.1,13.7z"/>
</g>
</svg>
